<svg width="1200" height="360" viewBox="0 0 1200 360" fill="none" xmlns="http://www.w3.org/2000/svg">
  <defs>
    <linearGradient id="bg" x1="0" y1="0" x2="1200" y2="360" gradientUnits="userSpaceOnUse">
      <stop stop-color="#020617"/>
      <stop offset="0.46" stop-color="#0f172a"/>
      <stop offset="1" stop-color="#111827"/>
    </linearGradient>
    <linearGradient id="line" x1="128" y1="270" x2="1070" y2="270" gradientUnits="userSpaceOnUse">
      <stop stop-color="#38bdf8" stop-opacity="0"/>
      <stop offset="0.25" stop-color="#38bdf8"/>
      <stop offset="0.52" stop-color="#a78bfa"/>
      <stop offset="0.82" stop-color="#22c55e"/>
      <stop offset="1" stop-color="#22c55e" stop-opacity="0"/>
    </linearGradient>
    <filter id="softGlow" x="-30%" y="-30%" width="160%" height="160%">
      <feGaussianBlur stdDeviation="8" result="blur"/>
      <feColorMatrix in="blur" type="matrix" values="0 0 0 0 0.22 0 0 0 0 0.74 0 0 0 0 1 0 0 0 0.85 0"/>
      <feBlend in="SourceGraphic" mode="screen"/>
    </filter>
  </defs>
  <rect width="1200" height="360" rx="34" fill="url(#bg)"/>
  <g opacity="0.27">
    <path d="M90 70H1110" stroke="#334155"/>
    <path d="M90 120H1110" stroke="#334155"/>
    <path d="M90 170H1110" stroke="#334155"/>
    <path d="M90 220H1110" stroke="#334155"/>
    <path d="M90 270H1110" stroke="#334155"/>
    <path d="M160 42V318" stroke="#334155"/>
    <path d="M330 42V318" stroke="#334155"/>
    <path d="M500 42V318" stroke="#334155"/>
    <path d="M670 42V318" stroke="#334155"/>
    <path d="M840 42V318" stroke="#334155"/>
    <path d="M1010 42V318" stroke="#334155"/>
  </g>
  <circle cx="1030" cy="92" r="120" fill="#2563eb" opacity="0.16"/>
  <circle cx="165" cy="260" r="105" fill="#22c55e" opacity="0.12"/>
  <path d="M128 270C250 214 335 321 449 258C560 196 628 183 735 234C840 284 936 243 1070 172" stroke="url(#line)" stroke-width="5" filter="url(#softGlow)"/>
  <g font-family="Segoe UI, Arial, sans-serif">
    <text x="80" y="96" fill="#67e8f9" font-size="24" font-weight="700">FULL-STACK DEVELOPER</text>
    <text x="80" y="158" fill="#f8fafc" font-size="58" font-weight="800">Ahmet Onur EVIS</text>
    <text x="82" y="205" fill="#cbd5e1" font-size="26">IT Operations • Web API • IoT • Automation</text>
    <text x="82" y="254" fill="#94a3b8" font-size="20">Node.js / TypeScript / .NET / SQL Server / PostgreSQL</text>
    <rect x="82" y="284" width="256" height="42" rx="21" fill="#0ea5e9" opacity="0.18" stroke="#38bdf8"/>
    <text x="108" y="312" fill="#e0f2fe" font-size="18" font-weight="700">github.com/ahmetonurevis</text>
  </g>
</svg>
